<svg width="85" height="85" viewBox="0 0 85 85" fill="none" xmlns="http://www.w3.org/2000/svg">
<mask id="mask0" mask-type="alpha" maskUnits="userSpaceOnUse" x="0" y="1" width="85" height="84">
<path fill-rule="evenodd" clip-rule="evenodd" d="M0.798267 1.02921H84.1237V84.3534H0.798267V1.02921Z" fill="white"/>
</mask>
<g mask="url(#mask0)">
<path fill-rule="evenodd" clip-rule="evenodd" d="M42.4609 84.3534C65.4717 84.3534 84.1237 65.7014 84.1237 42.6905C84.1237 19.6822 65.4717 1.02896 42.4609 1.02896C19.4513 1.02896 0.798012 19.6822 0.798012 42.6905C0.798012 65.7014 19.4513 84.3534 42.4609 84.3534Z" fill="#E7450E"/>
</g>
<path fill-rule="evenodd" clip-rule="evenodd" d="M34.2133 26.0723C34.116 25.163 33.4436 24.5035 32.615 24.5035H24.1151C23.5452 24.5035 23.0829 24.9587 23.0829 25.5199V28.4407C23.0829 28.7409 23.2187 29.0259 23.4505 29.2188C23.6387 29.3739 23.8744 29.4572 24.1151 29.4572C24.1741 29.4572 24.233 29.4521 24.2906 29.442L26.2091 29.1142L25.5072 31.755C26.1681 31.6881 26.8353 31.6541 27.5102 31.6654C28.1928 31.6768 28.8665 31.7335 29.5324 31.8256L30.4443 28.3903L32.9339 27.964C32.948 27.9627 32.9595 27.9602 32.9736 27.9577C33.7894 27.7862 34.3119 26.9929 34.2133 26.0723Z" fill="#FEFEFE"/>
<path fill-rule="evenodd" clip-rule="evenodd" d="M50.8007 27.8086L52.0673 31.8256C53.2807 31.4259 54.5561 31.162 55.8732 31.0491L54.4815 26.6387C53.153 22.4314 49.1664 21.3199 47.2438 21.3199H42.184V25.1948H47.2249C47.508 25.1999 50.0158 25.323 50.8007 27.8086Z" fill="#FEFEFE"/>
<path fill-rule="evenodd" clip-rule="evenodd" d="M57.3058 60.7956C50.1972 60.7956 44.4125 55.0119 44.4125 47.9017C44.4125 40.7928 50.1972 35.0091 57.3058 35.0091C64.4144 35.0091 70.199 40.7928 70.199 47.9017C70.199 55.0119 64.4144 60.7956 57.3058 60.7956ZM57.3057 38.8687C52.3245 38.8687 48.2719 42.9215 48.2719 47.9017C48.2719 52.8844 52.3245 56.9373 57.3057 56.9373C62.2869 56.9373 66.3396 52.8844 66.3396 47.9017C66.3396 42.9215 62.2869 38.8687 57.3057 38.8687Z" fill="#FEFEFE"/>
<path fill-rule="evenodd" clip-rule="evenodd" d="M36.3889 49.0041C35.842 53.469 32.0227 56.9384 27.406 56.9384C22.4132 56.9384 18.3535 52.8853 18.3535 47.9024C18.3535 42.9207 22.4132 38.8689 27.406 38.8689C27.5541 38.8689 27.7022 38.8714 27.849 38.879L28.8453 35.0925C28.3719 35.0394 27.8934 35.0091 27.406 35.0091C20.2815 35.0091 14.4874 40.7931 14.4874 47.9024C14.4874 55.0117 20.2815 60.7956 27.406 60.7956C34.1571 60.7956 39.7119 55.5991 40.2739 49.0041H36.3889Z" fill="#FEFEFE"/>
<path fill-rule="evenodd" clip-rule="evenodd" d="M47.3661 29.5971C43.0216 31.9051 39.5968 35.7184 37.789 40.3344C36.4183 38.4277 34.5398 36.9109 32.3543 35.9784L31.3601 39.759C33.5468 40.8606 35.2283 42.8215 35.9534 45.1964H40.4445C41.2429 40.1489 44.3013 35.8446 48.5511 33.3499L47.3661 29.5971Z" fill="#FCC800"/>
</svg>
